<mxfile host="app.diagrams.net" agent="Mozilla/5.0 (Windows NT 10.0; Win64; x64) AppleWebKit/537.36 (KHTML, like Gecko) Chrome/130.0.0.0 Safari/537.36" version="24.8.4">
  <diagram name="Page-1" id="T7CXiv49Hto3s1DvhN_q">
    <mxGraphModel dx="976" dy="962" grid="1" gridSize="10" guides="1" tooltips="1" connect="1" arrows="1" fold="1" page="1" pageScale="1" pageWidth="827" pageHeight="1169" math="0" shadow="0">
      <root>
        <mxCell id="0" />
        <mxCell id="1" parent="0" />
        <mxCell id="CTLy_RP8BoX3sGNTjS6a-148" value="users" style="swimlane;fontStyle=0;childLayout=stackLayout;horizontal=1;startSize=26;fillColor=#dae8fc;horizontalStack=0;resizeParent=1;resizeParentMax=0;resizeLast=0;collapsible=1;marginBottom=0;html=1;strokeColor=#6c8ebf;" vertex="1" parent="1">
          <mxGeometry x="1580" y="430" width="230" height="286" as="geometry">
            <mxRectangle x="120" y="120" width="70" height="30" as="alternateBounds" />
          </mxGeometry>
        </mxCell>
        <mxCell id="CTLy_RP8BoX3sGNTjS6a-149" value="id (INT, clé primaire)" style="text;strokeColor=default;fillColor=none;align=left;verticalAlign=top;spacingLeft=4;spacingRight=4;overflow=hidden;rotatable=0;points=[[0,0.5],[1,0.5]];portConstraint=eastwest;whiteSpace=wrap;html=1;" vertex="1" parent="CTLy_RP8BoX3sGNTjS6a-148">
          <mxGeometry y="26" width="230" height="26" as="geometry" />
        </mxCell>
        <mxCell id="CTLy_RP8BoX3sGNTjS6a-150" value="email (VARCHAR, unique)" style="text;strokeColor=default;fillColor=none;align=left;verticalAlign=top;spacingLeft=4;spacingRight=4;overflow=hidden;rotatable=0;points=[[0,0.5],[1,0.5]];portConstraint=eastwest;whiteSpace=wrap;html=1;" vertex="1" parent="CTLy_RP8BoX3sGNTjS6a-148">
          <mxGeometry y="52" width="230" height="26" as="geometry" />
        </mxCell>
        <mxCell id="CTLy_RP8BoX3sGNTjS6a-151" value="password (VARCHAR, hashed)" style="text;strokeColor=default;fillColor=none;align=left;verticalAlign=top;spacingLeft=4;spacingRight=4;overflow=hidden;rotatable=0;points=[[0,0.5],[1,0.5]];portConstraint=eastwest;whiteSpace=wrap;html=1;" vertex="1" parent="CTLy_RP8BoX3sGNTjS6a-148">
          <mxGeometry y="78" width="230" height="26" as="geometry" />
        </mxCell>
        <mxCell id="CTLy_RP8BoX3sGNTjS6a-152" value="firstname (VARCHAR)" style="text;strokeColor=default;fillColor=none;align=left;verticalAlign=top;spacingLeft=4;spacingRight=4;overflow=hidden;rotatable=0;points=[[0,0.5],[1,0.5]];portConstraint=eastwest;whiteSpace=wrap;html=1;" vertex="1" parent="CTLy_RP8BoX3sGNTjS6a-148">
          <mxGeometry y="104" width="230" height="26" as="geometry" />
        </mxCell>
        <mxCell id="CTLy_RP8BoX3sGNTjS6a-153" value="lastname (VARCHAR)" style="text;strokeColor=default;fillColor=none;align=left;verticalAlign=top;spacingLeft=4;spacingRight=4;overflow=hidden;rotatable=0;points=[[0,0.5],[1,0.5]];portConstraint=eastwest;whiteSpace=wrap;html=1;" vertex="1" parent="CTLy_RP8BoX3sGNTjS6a-148">
          <mxGeometry y="130" width="230" height="26" as="geometry" />
        </mxCell>
        <mxCell id="CTLy_RP8BoX3sGNTjS6a-154" value="is_banned (BOOLEAN, default FALSE)" style="text;strokeColor=default;fillColor=none;align=left;verticalAlign=top;spacingLeft=4;spacingRight=4;overflow=hidden;rotatable=0;points=[[0,0.5],[1,0.5]];portConstraint=eastwest;whiteSpace=wrap;html=1;" vertex="1" parent="CTLy_RP8BoX3sGNTjS6a-148">
          <mxGeometry y="156" width="230" height="26" as="geometry" />
        </mxCell>
        <mxCell id="CTLy_RP8BoX3sGNTjS6a-155" value="banned_at (DATETIME, nullable)" style="text;strokeColor=default;fillColor=none;align=left;verticalAlign=top;spacingLeft=4;spacingRight=4;overflow=hidden;rotatable=0;points=[[0,0.5],[1,0.5]];portConstraint=eastwest;whiteSpace=wrap;html=1;" vertex="1" parent="CTLy_RP8BoX3sGNTjS6a-148">
          <mxGeometry y="182" width="230" height="26" as="geometry" />
        </mxCell>
        <mxCell id="CTLy_RP8BoX3sGNTjS6a-156" value="banned_at (DATETIME, nullable)" style="text;strokeColor=default;fillColor=none;align=left;verticalAlign=top;spacingLeft=4;spacingRight=4;overflow=hidden;rotatable=0;points=[[0,0.5],[1,0.5]];portConstraint=eastwest;whiteSpace=wrap;html=1;" vertex="1" parent="CTLy_RP8BoX3sGNTjS6a-148">
          <mxGeometry y="208" width="230" height="26" as="geometry" />
        </mxCell>
        <mxCell id="CTLy_RP8BoX3sGNTjS6a-157" value="created_at (DATETIME)" style="text;strokeColor=default;fillColor=none;align=left;verticalAlign=top;spacingLeft=4;spacingRight=4;overflow=hidden;rotatable=0;points=[[0,0.5],[1,0.5]];portConstraint=eastwest;whiteSpace=wrap;html=1;" vertex="1" parent="CTLy_RP8BoX3sGNTjS6a-148">
          <mxGeometry y="234" width="230" height="26" as="geometry" />
        </mxCell>
        <mxCell id="CTLy_RP8BoX3sGNTjS6a-158" value="updated_at (DATETIME)" style="text;strokeColor=default;fillColor=none;align=left;verticalAlign=top;spacingLeft=4;spacingRight=4;overflow=hidden;rotatable=0;points=[[0,0.5],[1,0.5]];portConstraint=eastwest;whiteSpace=wrap;html=1;" vertex="1" parent="CTLy_RP8BoX3sGNTjS6a-148">
          <mxGeometry y="260" width="230" height="26" as="geometry" />
        </mxCell>
        <mxCell id="CTLy_RP8BoX3sGNTjS6a-159" value="categories" style="swimlane;fontStyle=0;childLayout=stackLayout;horizontal=1;startSize=30;horizontalStack=0;resizeParent=1;resizeParentMax=0;resizeLast=0;collapsible=1;marginBottom=0;whiteSpace=wrap;html=1;fillColor=#f8cecc;strokeColor=#b85450;" vertex="1" parent="1">
          <mxGeometry x="1580" y="140" width="190" height="240" as="geometry" />
        </mxCell>
        <mxCell id="CTLy_RP8BoX3sGNTjS6a-160" value="id (INT, clé primaire)" style="text;strokeColor=default;fillColor=none;align=left;verticalAlign=middle;spacingLeft=4;spacingRight=4;overflow=hidden;points=[[0,0.5],[1,0.5]];portConstraint=eastwest;rotatable=0;whiteSpace=wrap;html=1;" vertex="1" parent="CTLy_RP8BoX3sGNTjS6a-159">
          <mxGeometry y="30" width="190" height="30" as="geometry" />
        </mxCell>
        <mxCell id="CTLy_RP8BoX3sGNTjS6a-161" value="name (VARCHAR)" style="text;strokeColor=default;fillColor=none;align=left;verticalAlign=middle;spacingLeft=4;spacingRight=4;overflow=hidden;points=[[0,0.5],[1,0.5]];portConstraint=eastwest;rotatable=0;whiteSpace=wrap;html=1;" vertex="1" parent="CTLy_RP8BoX3sGNTjS6a-159">
          <mxGeometry y="60" width="190" height="30" as="geometry" />
        </mxCell>
        <mxCell id="CTLy_RP8BoX3sGNTjS6a-162" value="type (ENUM: &#39;income&#39;, &#39;expense&#39;)" style="text;strokeColor=default;fillColor=none;align=left;verticalAlign=middle;spacingLeft=4;spacingRight=4;overflow=hidden;points=[[0,0.5],[1,0.5]];portConstraint=eastwest;rotatable=0;whiteSpace=wrap;html=1;" vertex="1" parent="CTLy_RP8BoX3sGNTjS6a-159">
          <mxGeometry y="90" width="190" height="30" as="geometry" />
        </mxCell>
        <mxCell id="CTLy_RP8BoX3sGNTjS6a-163" value="icon (VARCHAR)" style="text;strokeColor=default;fillColor=none;align=left;verticalAlign=middle;spacingLeft=4;spacingRight=4;overflow=hidden;points=[[0,0.5],[1,0.5]];portConstraint=eastwest;rotatable=0;whiteSpace=wrap;html=1;" vertex="1" parent="CTLy_RP8BoX3sGNTjS6a-159">
          <mxGeometry y="120" width="190" height="30" as="geometry" />
        </mxCell>
        <mxCell id="CTLy_RP8BoX3sGNTjS6a-164" value="user_id (INT)" style="text;strokeColor=default;fillColor=none;align=left;verticalAlign=middle;spacingLeft=4;spacingRight=4;overflow=hidden;points=[[0,0.5],[1,0.5]];portConstraint=eastwest;rotatable=0;whiteSpace=wrap;html=1;" vertex="1" parent="CTLy_RP8BoX3sGNTjS6a-159">
          <mxGeometry y="150" width="190" height="30" as="geometry" />
        </mxCell>
        <mxCell id="CTLy_RP8BoX3sGNTjS6a-165" value="created_at (DATETIME)" style="text;strokeColor=default;fillColor=none;align=left;verticalAlign=middle;spacingLeft=4;spacingRight=4;overflow=hidden;points=[[0,0.5],[1,0.5]];portConstraint=eastwest;rotatable=0;whiteSpace=wrap;html=1;" vertex="1" parent="CTLy_RP8BoX3sGNTjS6a-159">
          <mxGeometry y="180" width="190" height="30" as="geometry" />
        </mxCell>
        <mxCell id="CTLy_RP8BoX3sGNTjS6a-166" value="updated_at (DATETIME)" style="text;strokeColor=default;fillColor=none;align=left;verticalAlign=middle;spacingLeft=4;spacingRight=4;overflow=hidden;points=[[0,0.5],[1,0.5]];portConstraint=eastwest;rotatable=0;whiteSpace=wrap;html=1;" vertex="1" parent="CTLy_RP8BoX3sGNTjS6a-159">
          <mxGeometry y="210" width="190" height="30" as="geometry" />
        </mxCell>
        <mxCell id="CTLy_RP8BoX3sGNTjS6a-167" value="transactions" style="swimlane;fontStyle=0;childLayout=stackLayout;horizontal=1;startSize=30;horizontalStack=0;resizeParent=1;resizeParentMax=0;resizeLast=0;collapsible=1;marginBottom=0;whiteSpace=wrap;html=1;fillColor=#fff2cc;strokeColor=#d6b656;" vertex="1" parent="1">
          <mxGeometry x="940" y="296" width="190" height="300" as="geometry" />
        </mxCell>
        <mxCell id="CTLy_RP8BoX3sGNTjS6a-168" value="id (INT, clé primaire)" style="text;strokeColor=default;fillColor=none;align=left;verticalAlign=middle;spacingLeft=4;spacingRight=4;overflow=hidden;points=[[0,0.5],[1,0.5]];portConstraint=eastwest;rotatable=0;whiteSpace=wrap;html=1;" vertex="1" parent="CTLy_RP8BoX3sGNTjS6a-167">
          <mxGeometry y="30" width="190" height="30" as="geometry" />
        </mxCell>
        <mxCell id="CTLy_RP8BoX3sGNTjS6a-169" value="user_id (INT)" style="text;strokeColor=default;fillColor=none;align=left;verticalAlign=middle;spacingLeft=4;spacingRight=4;overflow=hidden;points=[[0,0.5],[1,0.5]];portConstraint=eastwest;rotatable=0;whiteSpace=wrap;html=1;" vertex="1" parent="CTLy_RP8BoX3sGNTjS6a-167">
          <mxGeometry y="60" width="190" height="30" as="geometry" />
        </mxCell>
        <mxCell id="CTLy_RP8BoX3sGNTjS6a-170" value="category_id (INT)" style="text;strokeColor=default;fillColor=none;align=left;verticalAlign=middle;spacingLeft=4;spacingRight=4;overflow=hidden;points=[[0,0.5],[1,0.5]];portConstraint=eastwest;rotatable=0;whiteSpace=wrap;html=1;" vertex="1" parent="CTLy_RP8BoX3sGNTjS6a-167">
          <mxGeometry y="90" width="190" height="30" as="geometry" />
        </mxCell>
        <mxCell id="CTLy_RP8BoX3sGNTjS6a-171" value="amount (DECIMAL)" style="text;strokeColor=default;fillColor=none;align=left;verticalAlign=middle;spacingLeft=4;spacingRight=4;overflow=hidden;points=[[0,0.5],[1,0.5]];portConstraint=eastwest;rotatable=0;whiteSpace=wrap;html=1;" vertex="1" parent="CTLy_RP8BoX3sGNTjS6a-167">
          <mxGeometry y="120" width="190" height="30" as="geometry" />
        </mxCell>
        <mxCell id="CTLy_RP8BoX3sGNTjS6a-172" value="description (TEXT)" style="text;strokeColor=default;fillColor=none;align=left;verticalAlign=middle;spacingLeft=4;spacingRight=4;overflow=hidden;points=[[0,0.5],[1,0.5]];portConstraint=eastwest;rotatable=0;whiteSpace=wrap;html=1;" vertex="1" parent="CTLy_RP8BoX3sGNTjS6a-167">
          <mxGeometry y="150" width="190" height="30" as="geometry" />
        </mxCell>
        <mxCell id="CTLy_RP8BoX3sGNTjS6a-173" value="date (DATE)" style="text;strokeColor=default;fillColor=none;align=left;verticalAlign=middle;spacingLeft=4;spacingRight=4;overflow=hidden;points=[[0,0.5],[1,0.5]];portConstraint=eastwest;rotatable=0;whiteSpace=wrap;html=1;" vertex="1" parent="CTLy_RP8BoX3sGNTjS6a-167">
          <mxGeometry y="180" width="190" height="30" as="geometry" />
        </mxCell>
        <mxCell id="CTLy_RP8BoX3sGNTjS6a-174" value="type (ENUM: &#39;income&#39;, &#39;expense&#39;)" style="text;strokeColor=default;fillColor=none;align=left;verticalAlign=middle;spacingLeft=4;spacingRight=4;overflow=hidden;points=[[0,0.5],[1,0.5]];portConstraint=eastwest;rotatable=0;whiteSpace=wrap;html=1;" vertex="1" parent="CTLy_RP8BoX3sGNTjS6a-167">
          <mxGeometry y="210" width="190" height="30" as="geometry" />
        </mxCell>
        <mxCell id="CTLy_RP8BoX3sGNTjS6a-175" value="created_at (DATETIME)" style="text;strokeColor=default;fillColor=none;align=left;verticalAlign=middle;spacingLeft=4;spacingRight=4;overflow=hidden;points=[[0,0.5],[1,0.5]];portConstraint=eastwest;rotatable=0;whiteSpace=wrap;html=1;" vertex="1" parent="CTLy_RP8BoX3sGNTjS6a-167">
          <mxGeometry y="240" width="190" height="30" as="geometry" />
        </mxCell>
        <mxCell id="CTLy_RP8BoX3sGNTjS6a-176" value="updated_at (DATETIME)" style="text;strokeColor=default;fillColor=none;align=left;verticalAlign=middle;spacingLeft=4;spacingRight=4;overflow=hidden;points=[[0,0.5],[1,0.5]];portConstraint=eastwest;rotatable=0;whiteSpace=wrap;html=1;" vertex="1" parent="CTLy_RP8BoX3sGNTjS6a-167">
          <mxGeometry y="270" width="190" height="30" as="geometry" />
        </mxCell>
        <mxCell id="CTLy_RP8BoX3sGNTjS6a-177" value="budgets" style="swimlane;fontStyle=0;childLayout=stackLayout;horizontal=1;startSize=30;horizontalStack=0;resizeParent=1;resizeParentMax=0;resizeLast=0;collapsible=1;marginBottom=0;whiteSpace=wrap;html=1;fillColor=#e1d5e7;strokeColor=#9673a6;" vertex="1" parent="1">
          <mxGeometry x="1210" y="300" width="270" height="270" as="geometry" />
        </mxCell>
        <mxCell id="CTLy_RP8BoX3sGNTjS6a-178" value="id (INT, clé primaire)" style="text;strokeColor=default;fillColor=none;align=left;verticalAlign=middle;spacingLeft=4;spacingRight=4;overflow=hidden;points=[[0,0.5],[1,0.5]];portConstraint=eastwest;rotatable=0;whiteSpace=wrap;html=1;" vertex="1" parent="CTLy_RP8BoX3sGNTjS6a-177">
          <mxGeometry y="30" width="270" height="30" as="geometry" />
        </mxCell>
        <mxCell id="CTLy_RP8BoX3sGNTjS6a-179" value="user_id (INT)" style="text;strokeColor=default;fillColor=none;align=left;verticalAlign=middle;spacingLeft=4;spacingRight=4;overflow=hidden;points=[[0,0.5],[1,0.5]];portConstraint=eastwest;rotatable=0;whiteSpace=wrap;html=1;" vertex="1" parent="CTLy_RP8BoX3sGNTjS6a-177">
          <mxGeometry y="60" width="270" height="30" as="geometry" />
        </mxCell>
        <mxCell id="CTLy_RP8BoX3sGNTjS6a-180" value="category_id (INT)" style="text;strokeColor=default;fillColor=none;align=left;verticalAlign=middle;spacingLeft=4;spacingRight=4;overflow=hidden;points=[[0,0.5],[1,0.5]];portConstraint=eastwest;rotatable=0;whiteSpace=wrap;html=1;" vertex="1" parent="CTLy_RP8BoX3sGNTjS6a-177">
          <mxGeometry y="90" width="270" height="30" as="geometry" />
        </mxCell>
        <mxCell id="CTLy_RP8BoX3sGNTjS6a-181" value="amount (DECIMAL)" style="text;strokeColor=default;fillColor=none;align=left;verticalAlign=middle;spacingLeft=4;spacingRight=4;overflow=hidden;points=[[0,0.5],[1,0.5]];portConstraint=eastwest;rotatable=0;whiteSpace=wrap;html=1;" vertex="1" parent="CTLy_RP8BoX3sGNTjS6a-177">
          <mxGeometry y="120" width="270" height="30" as="geometry" />
        </mxCell>
        <mxCell id="CTLy_RP8BoX3sGNTjS6a-182" value="period (ENUM: &#39;daily&#39;, &#39;weekly&#39;, &#39;monthly&#39;, &#39;yealy&#39;)" style="text;strokeColor=default;fillColor=none;align=left;verticalAlign=middle;spacingLeft=4;spacingRight=4;overflow=hidden;points=[[0,0.5],[1,0.5]];portConstraint=eastwest;rotatable=0;whiteSpace=wrap;html=1;" vertex="1" parent="CTLy_RP8BoX3sGNTjS6a-177">
          <mxGeometry y="150" width="270" height="30" as="geometry" />
        </mxCell>
        <mxCell id="CTLy_RP8BoX3sGNTjS6a-183" value="deadline (DATE)" style="text;strokeColor=default;fillColor=none;align=left;verticalAlign=middle;spacingLeft=4;spacingRight=4;overflow=hidden;points=[[0,0.5],[1,0.5]];portConstraint=eastwest;rotatable=0;whiteSpace=wrap;html=1;" vertex="1" parent="CTLy_RP8BoX3sGNTjS6a-177">
          <mxGeometry y="180" width="270" height="30" as="geometry" />
        </mxCell>
        <mxCell id="CTLy_RP8BoX3sGNTjS6a-184" value="created_at (DATETIME)" style="text;strokeColor=default;fillColor=none;align=left;verticalAlign=middle;spacingLeft=4;spacingRight=4;overflow=hidden;points=[[0,0.5],[1,0.5]];portConstraint=eastwest;rotatable=0;whiteSpace=wrap;html=1;" vertex="1" parent="CTLy_RP8BoX3sGNTjS6a-177">
          <mxGeometry y="210" width="270" height="30" as="geometry" />
        </mxCell>
        <mxCell id="CTLy_RP8BoX3sGNTjS6a-185" value="updated_at (DATETIME)" style="text;strokeColor=default;fillColor=none;align=left;verticalAlign=middle;spacingLeft=4;spacingRight=4;overflow=hidden;points=[[0,0.5],[1,0.5]];portConstraint=eastwest;rotatable=0;whiteSpace=wrap;html=1;" vertex="1" parent="CTLy_RP8BoX3sGNTjS6a-177">
          <mxGeometry y="240" width="270" height="30" as="geometry" />
        </mxCell>
        <mxCell id="CTLy_RP8BoX3sGNTjS6a-186" value="financial_goals" style="swimlane;fontStyle=0;childLayout=stackLayout;horizontal=1;startSize=30;horizontalStack=0;resizeParent=1;resizeParentMax=0;resizeLast=0;collapsible=1;marginBottom=0;whiteSpace=wrap;html=1;fillColor=#d5e8d4;strokeColor=#82b366;" vertex="1" parent="1">
          <mxGeometry x="1600" y="740" width="190" height="270" as="geometry" />
        </mxCell>
        <mxCell id="CTLy_RP8BoX3sGNTjS6a-187" value="id (INT, clé primaire)" style="text;strokeColor=default;fillColor=none;align=left;verticalAlign=middle;spacingLeft=4;spacingRight=4;overflow=hidden;points=[[0,0.5],[1,0.5]];portConstraint=eastwest;rotatable=0;whiteSpace=wrap;html=1;" vertex="1" parent="CTLy_RP8BoX3sGNTjS6a-186">
          <mxGeometry y="30" width="190" height="30" as="geometry" />
        </mxCell>
        <mxCell id="CTLy_RP8BoX3sGNTjS6a-188" value="user_id (INT)" style="text;strokeColor=default;fillColor=none;align=left;verticalAlign=middle;spacingLeft=4;spacingRight=4;overflow=hidden;points=[[0,0.5],[1,0.5]];portConstraint=eastwest;rotatable=0;whiteSpace=wrap;html=1;" vertex="1" parent="CTLy_RP8BoX3sGNTjS6a-186">
          <mxGeometry y="60" width="190" height="30" as="geometry" />
        </mxCell>
        <mxCell id="CTLy_RP8BoX3sGNTjS6a-189" value="name (VARCHAR)" style="text;strokeColor=default;fillColor=none;align=left;verticalAlign=middle;spacingLeft=4;spacingRight=4;overflow=hidden;points=[[0,0.5],[1,0.5]];portConstraint=eastwest;rotatable=0;whiteSpace=wrap;html=1;" vertex="1" parent="CTLy_RP8BoX3sGNTjS6a-186">
          <mxGeometry y="90" width="190" height="30" as="geometry" />
        </mxCell>
        <mxCell id="CTLy_RP8BoX3sGNTjS6a-190" value="target_amount (DECIMAL)" style="text;strokeColor=default;fillColor=none;align=left;verticalAlign=middle;spacingLeft=4;spacingRight=4;overflow=hidden;points=[[0,0.5],[1,0.5]];portConstraint=eastwest;rotatable=0;whiteSpace=wrap;html=1;" vertex="1" parent="CTLy_RP8BoX3sGNTjS6a-186">
          <mxGeometry y="120" width="190" height="30" as="geometry" />
        </mxCell>
        <mxCell id="CTLy_RP8BoX3sGNTjS6a-191" value="current_amount (DECIMAL)" style="text;strokeColor=default;fillColor=none;align=left;verticalAlign=middle;spacingLeft=4;spacingRight=4;overflow=hidden;points=[[0,0.5],[1,0.5]];portConstraint=eastwest;rotatable=0;whiteSpace=wrap;html=1;" vertex="1" parent="CTLy_RP8BoX3sGNTjS6a-186">
          <mxGeometry y="150" width="190" height="30" as="geometry" />
        </mxCell>
        <mxCell id="CTLy_RP8BoX3sGNTjS6a-192" value="deadline (DATE)" style="text;strokeColor=default;fillColor=none;align=left;verticalAlign=middle;spacingLeft=4;spacingRight=4;overflow=hidden;points=[[0,0.5],[1,0.5]];portConstraint=eastwest;rotatable=0;whiteSpace=wrap;html=1;" vertex="1" parent="CTLy_RP8BoX3sGNTjS6a-186">
          <mxGeometry y="180" width="190" height="30" as="geometry" />
        </mxCell>
        <mxCell id="CTLy_RP8BoX3sGNTjS6a-193" value="created_at (DATETIME)" style="text;strokeColor=default;fillColor=none;align=left;verticalAlign=middle;spacingLeft=4;spacingRight=4;overflow=hidden;points=[[0,0.5],[1,0.5]];portConstraint=eastwest;rotatable=0;whiteSpace=wrap;html=1;" vertex="1" parent="CTLy_RP8BoX3sGNTjS6a-186">
          <mxGeometry y="210" width="190" height="30" as="geometry" />
        </mxCell>
        <mxCell id="CTLy_RP8BoX3sGNTjS6a-194" value="updated_at (DATETIME)" style="text;strokeColor=default;fillColor=none;align=left;verticalAlign=middle;spacingLeft=4;spacingRight=4;overflow=hidden;points=[[0,0.5],[1,0.5]];portConstraint=eastwest;rotatable=0;whiteSpace=wrap;html=1;" vertex="1" parent="CTLy_RP8BoX3sGNTjS6a-186">
          <mxGeometry y="240" width="190" height="30" as="geometry" />
        </mxCell>
        <mxCell id="CTLy_RP8BoX3sGNTjS6a-195" value="recurring_transactions" style="swimlane;fontStyle=0;childLayout=stackLayout;horizontal=1;startSize=30;horizontalStack=0;resizeParent=1;resizeParentMax=0;resizeLast=0;collapsible=1;marginBottom=0;whiteSpace=wrap;html=1;fillColor=#FFE6CC;strokeColor=#d79b00;" vertex="1" parent="1">
          <mxGeometry x="1920" y="296" width="300" height="360" as="geometry" />
        </mxCell>
        <mxCell id="CTLy_RP8BoX3sGNTjS6a-196" value="id (INT)" style="text;strokeColor=default;fillColor=none;align=left;verticalAlign=middle;spacingLeft=4;spacingRight=4;overflow=hidden;points=[[0,0.5],[1,0.5]];portConstraint=eastwest;rotatable=0;whiteSpace=wrap;html=1;" vertex="1" parent="CTLy_RP8BoX3sGNTjS6a-195">
          <mxGeometry y="30" width="300" height="30" as="geometry" />
        </mxCell>
        <mxCell id="CTLy_RP8BoX3sGNTjS6a-197" value="user_id (INT)" style="text;strokeColor=default;fillColor=none;align=left;verticalAlign=middle;spacingLeft=4;spacingRight=4;overflow=hidden;points=[[0,0.5],[1,0.5]];portConstraint=eastwest;rotatable=0;whiteSpace=wrap;html=1;" vertex="1" parent="CTLy_RP8BoX3sGNTjS6a-195">
          <mxGeometry y="60" width="300" height="30" as="geometry" />
        </mxCell>
        <mxCell id="CTLy_RP8BoX3sGNTjS6a-198" value="category_id (INT)" style="text;strokeColor=default;fillColor=none;align=left;verticalAlign=middle;spacingLeft=4;spacingRight=4;overflow=hidden;points=[[0,0.5],[1,0.5]];portConstraint=eastwest;rotatable=0;whiteSpace=wrap;html=1;" vertex="1" parent="CTLy_RP8BoX3sGNTjS6a-195">
          <mxGeometry y="90" width="300" height="30" as="geometry" />
        </mxCell>
        <mxCell id="CTLy_RP8BoX3sGNTjS6a-199" value="amount (DECIMAL)" style="text;strokeColor=default;fillColor=none;align=left;verticalAlign=middle;spacingLeft=4;spacingRight=4;overflow=hidden;points=[[0,0.5],[1,0.5]];portConstraint=eastwest;rotatable=0;whiteSpace=wrap;html=1;" vertex="1" parent="CTLy_RP8BoX3sGNTjS6a-195">
          <mxGeometry y="120" width="300" height="30" as="geometry" />
        </mxCell>
        <mxCell id="CTLy_RP8BoX3sGNTjS6a-200" value="description (TEXT)" style="text;strokeColor=default;fillColor=none;align=left;verticalAlign=middle;spacingLeft=4;spacingRight=4;overflow=hidden;points=[[0,0.5],[1,0.5]];portConstraint=eastwest;rotatable=0;whiteSpace=wrap;html=1;" vertex="1" parent="CTLy_RP8BoX3sGNTjS6a-195">
          <mxGeometry y="150" width="300" height="30" as="geometry" />
        </mxCell>
        <mxCell id="CTLy_RP8BoX3sGNTjS6a-201" value="frequency (ENUM: &#39;daily&#39;, &#39;weekly&#39;, &#39;monthly&#39;, &#39;yearly&#39;)" style="text;strokeColor=default;fillColor=none;align=left;verticalAlign=middle;spacingLeft=4;spacingRight=4;overflow=hidden;points=[[0,0.5],[1,0.5]];portConstraint=eastwest;rotatable=0;whiteSpace=wrap;html=1;" vertex="1" parent="CTLy_RP8BoX3sGNTjS6a-195">
          <mxGeometry y="180" width="300" height="30" as="geometry" />
        </mxCell>
        <mxCell id="CTLy_RP8BoX3sGNTjS6a-202" value="start_date (DATE)" style="text;strokeColor=default;fillColor=none;align=left;verticalAlign=middle;spacingLeft=4;spacingRight=4;overflow=hidden;points=[[0,0.5],[1,0.5]];portConstraint=eastwest;rotatable=0;whiteSpace=wrap;html=1;" vertex="1" parent="CTLy_RP8BoX3sGNTjS6a-195">
          <mxGeometry y="210" width="300" height="30" as="geometry" />
        </mxCell>
        <mxCell id="CTLy_RP8BoX3sGNTjS6a-203" value="end_date (DATE)" style="text;strokeColor=default;fillColor=none;align=left;verticalAlign=middle;spacingLeft=4;spacingRight=4;overflow=hidden;points=[[0,0.5],[1,0.5]];portConstraint=eastwest;rotatable=0;whiteSpace=wrap;html=1;" vertex="1" parent="CTLy_RP8BoX3sGNTjS6a-195">
          <mxGeometry y="240" width="300" height="30" as="geometry" />
        </mxCell>
        <mxCell id="CTLy_RP8BoX3sGNTjS6a-204" value="last_occurrence (DATE)" style="text;strokeColor=default;fillColor=none;align=left;verticalAlign=middle;spacingLeft=4;spacingRight=4;overflow=hidden;points=[[0,0.5],[1,0.5]];portConstraint=eastwest;rotatable=0;whiteSpace=wrap;html=1;" vertex="1" parent="CTLy_RP8BoX3sGNTjS6a-195">
          <mxGeometry y="270" width="300" height="30" as="geometry" />
        </mxCell>
        <mxCell id="CTLy_RP8BoX3sGNTjS6a-205" value="created_at (DATETIME)" style="text;strokeColor=default;fillColor=none;align=left;verticalAlign=middle;spacingLeft=4;spacingRight=4;overflow=hidden;points=[[0,0.5],[1,0.5]];portConstraint=eastwest;rotatable=0;whiteSpace=wrap;html=1;" vertex="1" parent="CTLy_RP8BoX3sGNTjS6a-195">
          <mxGeometry y="300" width="300" height="30" as="geometry" />
        </mxCell>
        <mxCell id="CTLy_RP8BoX3sGNTjS6a-206" value="updated_at (DATETIME)" style="text;strokeColor=default;fillColor=none;align=left;verticalAlign=middle;spacingLeft=4;spacingRight=4;overflow=hidden;points=[[0,0.5],[1,0.5]];portConstraint=eastwest;rotatable=0;whiteSpace=wrap;html=1;" vertex="1" parent="CTLy_RP8BoX3sGNTjS6a-195">
          <mxGeometry y="330" width="300" height="30" as="geometry" />
        </mxCell>
        <mxCell id="CTLy_RP8BoX3sGNTjS6a-214" style="edgeStyle=orthogonalEdgeStyle;rounded=0;orthogonalLoop=1;jettySize=auto;html=1;entryX=0;entryY=0.5;entryDx=0;entryDy=0;" edge="1" parent="1" source="CTLy_RP8BoX3sGNTjS6a-149" target="CTLy_RP8BoX3sGNTjS6a-179">
          <mxGeometry relative="1" as="geometry">
            <Array as="points">
              <mxPoint x="1530" y="469" />
              <mxPoint x="1530" y="620" />
              <mxPoint x="1190" y="620" />
              <mxPoint x="1190" y="375" />
            </Array>
          </mxGeometry>
        </mxCell>
        <mxCell id="CTLy_RP8BoX3sGNTjS6a-215" style="edgeStyle=orthogonalEdgeStyle;rounded=0;orthogonalLoop=1;jettySize=auto;html=1;entryX=0;entryY=0.5;entryDx=0;entryDy=0;" edge="1" parent="1" source="CTLy_RP8BoX3sGNTjS6a-149" target="CTLy_RP8BoX3sGNTjS6a-169">
          <mxGeometry relative="1" as="geometry">
            <Array as="points">
              <mxPoint x="1530" y="469" />
              <mxPoint x="1530" y="700" />
              <mxPoint x="920" y="700" />
              <mxPoint x="920" y="371" />
            </Array>
          </mxGeometry>
        </mxCell>
        <mxCell id="CTLy_RP8BoX3sGNTjS6a-216" style="edgeStyle=orthogonalEdgeStyle;rounded=0;orthogonalLoop=1;jettySize=auto;html=1;exitX=1;exitY=0.5;exitDx=0;exitDy=0;entryX=1;entryY=0.5;entryDx=0;entryDy=0;" edge="1" parent="1" source="CTLy_RP8BoX3sGNTjS6a-149" target="CTLy_RP8BoX3sGNTjS6a-197">
          <mxGeometry relative="1" as="geometry">
            <Array as="points">
              <mxPoint x="1850" y="469" />
              <mxPoint x="1850" y="700" />
              <mxPoint x="2240" y="700" />
              <mxPoint x="2240" y="371" />
            </Array>
          </mxGeometry>
        </mxCell>
        <mxCell id="CTLy_RP8BoX3sGNTjS6a-218" style="edgeStyle=orthogonalEdgeStyle;rounded=0;orthogonalLoop=1;jettySize=auto;html=1;exitX=0;exitY=0.5;exitDx=0;exitDy=0;entryX=1;entryY=0.5;entryDx=0;entryDy=0;" edge="1" parent="1" source="CTLy_RP8BoX3sGNTjS6a-160" target="CTLy_RP8BoX3sGNTjS6a-170">
          <mxGeometry relative="1" as="geometry">
            <Array as="points">
              <mxPoint x="1170" y="185" />
              <mxPoint x="1170" y="401" />
            </Array>
          </mxGeometry>
        </mxCell>
        <mxCell id="CTLy_RP8BoX3sGNTjS6a-219" style="edgeStyle=orthogonalEdgeStyle;rounded=0;orthogonalLoop=1;jettySize=auto;html=1;entryX=1;entryY=0.5;entryDx=0;entryDy=0;" edge="1" parent="1" source="CTLy_RP8BoX3sGNTjS6a-160" target="CTLy_RP8BoX3sGNTjS6a-180">
          <mxGeometry relative="1" as="geometry" />
        </mxCell>
        <mxCell id="CTLy_RP8BoX3sGNTjS6a-220" style="edgeStyle=orthogonalEdgeStyle;rounded=0;orthogonalLoop=1;jettySize=auto;html=1;exitX=1;exitY=0.5;exitDx=0;exitDy=0;entryX=0;entryY=0.5;entryDx=0;entryDy=0;" edge="1" parent="1" source="CTLy_RP8BoX3sGNTjS6a-160" target="CTLy_RP8BoX3sGNTjS6a-198">
          <mxGeometry relative="1" as="geometry" />
        </mxCell>
        <mxCell id="CTLy_RP8BoX3sGNTjS6a-233" value="" style="group" vertex="1" connectable="0" parent="1">
          <mxGeometry x="860" y="760" width="670" height="240" as="geometry" />
        </mxCell>
        <mxCell id="CTLy_RP8BoX3sGNTjS6a-224" value="&#39;users&#39; à &#39;categories&#39; : One-to-Many (Un utilisateur peut avoir plusieurs catégories)" style="text;html=1;align=center;verticalAlign=middle;resizable=0;points=[];autosize=1;strokeColor=default;fillColor=none;rounded=0;" vertex="1" parent="CTLy_RP8BoX3sGNTjS6a-233">
          <mxGeometry width="460" height="30" as="geometry" />
        </mxCell>
        <mxCell id="CTLy_RP8BoX3sGNTjS6a-225" value="&#39;users&#39; à &#39;transactions&#39; : One-to-Many (Un utilisateur peut avoir plusieurs transactions)" style="text;html=1;align=center;verticalAlign=middle;resizable=0;points=[];autosize=1;strokeColor=default;fillColor=none;rounded=0;" vertex="1" parent="CTLy_RP8BoX3sGNTjS6a-233">
          <mxGeometry y="30" width="480" height="30" as="geometry" />
        </mxCell>
        <mxCell id="CTLy_RP8BoX3sGNTjS6a-226" value="&#39;users&#39; à &#39;budgets&#39; : One-to-Many (Un utilisateur peut avoir plusieurs budgets)" style="text;html=1;align=center;verticalAlign=middle;resizable=0;points=[];autosize=1;strokeColor=default;fillColor=none;rounded=0;" vertex="1" parent="CTLy_RP8BoX3sGNTjS6a-233">
          <mxGeometry y="60" width="430" height="30" as="geometry" />
        </mxCell>
        <mxCell id="CTLy_RP8BoX3sGNTjS6a-227" value="&#39;users&#39; à &#39;financial_goals&#39; : One-to-Many (Un utilisateur peut avoir plusieurs objectifs financiers)" style="text;html=1;align=center;verticalAlign=middle;resizable=0;points=[];autosize=1;strokeColor=default;fillColor=none;rounded=0;" vertex="1" parent="CTLy_RP8BoX3sGNTjS6a-233">
          <mxGeometry y="90" width="530" height="30" as="geometry" />
        </mxCell>
        <mxCell id="CTLy_RP8BoX3sGNTjS6a-228" value="&#39;categories&#39; à &#39;budgets&#39; : One-to-Many (Une catégories peut être associée à plusieurs budgets)" style="text;html=1;align=center;verticalAlign=middle;resizable=0;points=[];autosize=1;strokeColor=default;fillColor=none;rounded=0;" vertex="1" parent="CTLy_RP8BoX3sGNTjS6a-233">
          <mxGeometry y="180" width="520" height="30" as="geometry" />
        </mxCell>
        <mxCell id="CTLy_RP8BoX3sGNTjS6a-230" value="&#39;users&#39; à &#39;recurring_transactions&#39; : One-to-Many (Un utilisateur peut avoir plusieurs transactions récurrentes)" style="text;html=1;align=center;verticalAlign=middle;resizable=0;points=[];autosize=1;strokeColor=default;fillColor=none;rounded=0;" vertex="1" parent="CTLy_RP8BoX3sGNTjS6a-233">
          <mxGeometry y="120" width="590" height="30" as="geometry" />
        </mxCell>
        <mxCell id="CTLy_RP8BoX3sGNTjS6a-231" value="&#39;categories&#39; à &#39;transactions&#39; : One-to-Many (Une catégorie peut être associée à plusieurs transactions)" style="text;html=1;align=center;verticalAlign=middle;resizable=0;points=[];autosize=1;strokeColor=default;fillColor=none;rounded=0;" vertex="1" parent="CTLy_RP8BoX3sGNTjS6a-233">
          <mxGeometry y="150" width="560" height="30" as="geometry" />
        </mxCell>
        <mxCell id="CTLy_RP8BoX3sGNTjS6a-232" value="&#39;categories&#39; à &#39;recurring_transactions&#39; : One-to-Many (Une catégorie peut être associée à plusieurs transaction récurrentes)" style="text;html=1;align=center;verticalAlign=middle;resizable=0;points=[];autosize=1;strokeColor=default;fillColor=none;rounded=0;" vertex="1" parent="CTLy_RP8BoX3sGNTjS6a-233">
          <mxGeometry y="210" width="670" height="30" as="geometry" />
        </mxCell>
        <mxCell id="CTLy_RP8BoX3sGNTjS6a-234" style="edgeStyle=orthogonalEdgeStyle;rounded=0;orthogonalLoop=1;jettySize=auto;html=1;entryX=0;entryY=0.5;entryDx=0;entryDy=0;" edge="1" parent="1" source="CTLy_RP8BoX3sGNTjS6a-164" target="CTLy_RP8BoX3sGNTjS6a-149">
          <mxGeometry relative="1" as="geometry">
            <Array as="points">
              <mxPoint x="1560" y="305" />
              <mxPoint x="1560" y="469" />
            </Array>
          </mxGeometry>
        </mxCell>
        <mxCell id="CTLy_RP8BoX3sGNTjS6a-235" style="edgeStyle=orthogonalEdgeStyle;rounded=0;orthogonalLoop=1;jettySize=auto;html=1;entryX=1;entryY=0.5;entryDx=0;entryDy=0;" edge="1" parent="1" source="CTLy_RP8BoX3sGNTjS6a-149" target="CTLy_RP8BoX3sGNTjS6a-188">
          <mxGeometry relative="1" as="geometry">
            <Array as="points">
              <mxPoint x="1850" y="469" />
              <mxPoint x="1850" y="815" />
            </Array>
          </mxGeometry>
        </mxCell>
      </root>
    </mxGraphModel>
  </diagram>
</mxfile>
